<?xml version="1.0" encoding="utf-8"?>
<!-- Generator: Adobe Illustrator 18.1.1, SVG Export Plug-In . SVG Version: 6.00 Build 0)  -->
<svg version="1.1" id="Warstwa_1" xmlns="http://www.w3.org/2000/svg" xmlns:xlink="http://www.w3.org/1999/xlink" x="0px" y="0px"
	 viewBox="0 0 28.5 44.2" enable-background="new 0 0 28.5 44.2" xml:space="preserve">
<g>
	<g>
		<path d="M14.3,38.4c0.3,0,0.6-0.1,0.8-0.4c0.6-0.7,13.5-16.2,13.5-23.8C28.5,6.4,22.1,0,14.3,0C6.4,0,0,6.4,0,14.3
			C0,21.9,12.9,37.4,13.5,38C13.7,38.3,14,38.4,14.3,38.4z M14.3,2C21,2,26.5,7.5,26.5,14.3c0,5.9-9.5,18.1-12.3,21.6
			C11.5,32.3,2,20.1,2,14.3C2,7.5,7.5,2,14.3,2z M20.4,13.1c0-3.3-2.7-5.9-5.9-5.9c-3.3,0-5.9,2.7-5.9,5.9c0,3.3,2.7,5.9,5.9,5.9
			C17.7,19.1,20.4,16.4,20.4,13.1z M10.5,13.1c0-2.2,1.8-3.9,3.9-3.9c2.2,0,3.9,1.8,3.9,3.9c0,2.2-1.8,3.9-3.9,3.9
			C12.3,17.1,10.5,15.3,10.5,13.1z M21,33.4c-0.5-0.1-1.1,0.2-1.2,0.8c-0.1,0.5,0.2,1.1,0.8,1.2c3.9,0.8,5.9,2.2,5.9,3.1
			c0,1.5-4.8,3.7-12.3,3.7C6.8,42.2,2,40,2,38.5c0-1,2.1-2.4,6-3.2c0.5-0.1,0.9-0.6,0.8-1.2c-0.1-0.5-0.6-0.9-1.2-0.8
			c-4.9,1-7.6,2.8-7.6,5.1c0,3.8,7.2,5.7,14.3,5.7c7.1,0,14.3-2,14.3-5.7C28.5,36.2,25.8,34.4,21,33.4z"/>
	</g>
</g>
</svg>
