<?xml version="1.0" encoding="utf-8"?>
<!-- Generator: Adobe Illustrator 18.1.1, SVG Export Plug-In . SVG Version: 6.00 Build 0)  -->
<svg version="1.1" id="Warstwa_1" xmlns="http://www.w3.org/2000/svg" xmlns:xlink="http://www.w3.org/1999/xlink" x="0px" y="0px"
	 viewBox="0 0 37 37" enable-background="new 0 0 37 37" xml:space="preserve">
<path d="M35,37H22c-1.1,0-2-0.9-2-2V22c0-1.1,0.9-2,2-2h13c1.1,0,2,0.9,2,2v13C37,36.1,36.1,37,35,37z M22,22v13h13l0-13H22z M15,37
	H2c-1.1,0-2-0.9-2-2V22c0-1.1,0.9-2,2-2h13c1.1,0,2,0.9,2,2v13C17,36.1,16.1,37,15,37z M2,22v13h13l0-13H2z M35,17H22
	c-1.1,0-2-0.9-2-2V2c0-1.1,0.9-2,2-2h13c1.1,0,2,0.9,2,2v13C37,16.1,36.1,17,35,17z M22,2v13h13l0-13H22z M15,17H2c-1.1,0-2-0.9-2-2
	V2c0-1.1,0.9-2,2-2h13c1.1,0,2,0.9,2,2v13C17,16.1,16.1,17,15,17z M2,2v13h13l0-13H2z"/>
</svg>
