<?xml version="1.0" encoding="utf-8"?>
<!-- Generator: Adobe Illustrator 18.1.1, SVG Export Plug-In . SVG Version: 6.00 Build 0)  -->
<svg version="1.1" id="Warstwa_1" xmlns="http://www.w3.org/2000/svg" xmlns:xlink="http://www.w3.org/1999/xlink" x="0px" y="0px"
	 viewBox="0 0 43 43" enable-background="new 0 0 43 43" xml:space="preserve">
<path fill-rule="evenodd" clip-rule="evenodd" d="M21.5,43C9.6,43,0,33.4,0,21.5C0,9.6,9.6,0,21.5,0S43,9.6,43,21.5
	C43,33.4,33.4,43,21.5,43z M34.8,35.7c-1.1-0.7-2.4-1-4.2-1.4c-2.1-0.5-4.9-0.9-4.7-3.3c-1.6,1.5-4.5,2-6.7,1.1
	c-0.7-0.3-1.2-0.9-1.7-0.9c0.1,2.4-2.7,2.6-4.7,3.1c-1.9,0.5-3.3,0.8-4.3,1.6c3.5,3.2,8.1,5.1,13.1,5.1C26.6,41,31.3,39,34.8,35.7z
	 M23,9.4c-6.5-0.6-9.7,3.9-8.8,10.5c-0.3,0.1-0.6,0.1-0.7,0.4c0,2,0.4,3.6,1.8,4.1c0.7,3.2,3,7,7.1,6.5c3.3-0.4,5.1-3.6,5.8-6.5
	c1.4-0.6,1.9-2.4,1.7-4.2c0-0.3-0.5-0.2-0.7-0.3C30.3,14.8,27.4,9.8,23,9.4z M21.5,2C10.7,2,2,10.7,2,21.5c0,5.1,2,9.7,5.2,13.2
	c0.4-0.3,0.7-0.6,1.2-0.8c2.1-1.1,4.8-1,7.4-2.2c0-0.7,0-1.5,0-2.2c-1-0.9-1.2-2.5-1.9-3.7c-0.4-0.8-1.1-1.2-1.4-2
	c-0.4-0.9-0.8-2-0.6-3.3c0.1-0.7,0.5-1.1,0.6-1.7c0.1-0.8-0.1-1.7,0-2.5c0.4-4.5,3.7-8,8.1-8.6c0.9,0,1.8,0,2.7,0
	c4.6,0.8,7.8,4.2,8.1,9.2c0,0.6-0.2,1.2-0.1,1.9c0.1,0.6,0.6,1.1,0.6,1.8c0.1,2.1-0.9,3.8-2.1,5.1c-0.3,1.5-1.1,2.6-1.8,3.7
	c0,0.7,0,1.4,0,2.1c2.1,1.3,5,1.2,7.1,2.2c0.4,0.2,0.8,0.5,1.1,0.7c3.1-3.5,5-8,5-13C41,10.7,32.3,2,21.5,2z"/>
</svg>
