<?xml version="1.0" encoding="utf-8"?>
<!-- Generator: Adobe Illustrator 18.1.1, SVG Export Plug-In . SVG Version: 6.00 Build 0)  -->
<svg version="1.1" id="Warstwa_1" xmlns="http://www.w3.org/2000/svg" xmlns:xlink="http://www.w3.org/1999/xlink" x="0px" y="0px"
	 viewBox="0 0 43 43" enable-background="new 0 0 43 43" xml:space="preserve">
<path fill-rule="evenodd" clip-rule="evenodd" d="M21.5,0C9.6,0,0,9.6,0,21.5S9.6,43,21.5,43C33.3,43,43,33.4,43,21.5S33.3,0,21.5,0
	z M21.5,41c-5,0-9.6-1.9-13.1-5.1c1.1-0.8,2.5-1.1,4.3-1.6c2-0.5,4.8-0.7,4.7-3.1c0.5,0,1,0.6,1.8,0.9c2.3,0.9,5.1,0.4,6.7-1.1
	c-0.2,2.4,2.6,2.8,4.7,3.3c1.8,0.4,3.1,0.8,4.2,1.4C31.3,39,26.6,41,21.5,41z M14.1,18.9c-0.5-6,2.7-10,8.9-9.5
	c4.1,0.3,6.9,4.6,6.4,9.3c0,0.4-0.1,0.8-0.2,1.2c0.2,0.2,0.7,0,0.7,0.3c0,0.4,0,0.7,0,1.1c0,0.5-0.1,1-0.3,1.4
	c-0.3,0.8-0.8,1.4-1.5,1.7c-0.7,2.9-2.5,6.1-5.8,6.5c-4.1,0.5-6.3-3.3-7.1-6.5c-0.8-0.3-1.3-1-1.6-1.9c-0.1-0.4-0.2-0.8-0.2-1.2
	c0-0.3,0-0.6,0-1c0.1-0.3,0.5-0.3,0.7-0.4C14.1,19.6,14.1,19.3,14.1,18.9z M36,34.5c-0.3-0.3-0.7-0.5-1.1-0.7c-2.1-1-5-1-7.1-2.2
	v-2.1c0.2-0.3,0.4-0.6,0.6-0.9c0.5-0.8,1-1.7,1.2-2.8c0.2-0.2,0.4-0.4,0.5-0.6c0.7-0.8,1.2-1.8,1.5-2.9c0.1-0.5,0.2-1.1,0.1-1.6
	c0-0.7-0.5-1.2-0.6-1.8c-0.1-0.7,0.1-1.3,0.1-1.9c-0.3-5-3.5-8.4-8.1-9.2h-2.7c-4.3,0.6-7.7,4-8.1,8.6c-0.1,0.8,0.1,1.6,0,2.4
	c-0.1,0.6-0.5,1-0.6,1.7c-0.1,0.6,0,1.1,0.1,1.6c0.1,0.7,0.3,1.2,0.6,1.7c0.2,0.5,0.6,0.9,0.9,1.3c0.2,0.2,0.4,0.5,0.5,0.7
	c0.5,0.9,0.7,1.9,1.2,2.8c0.2,0.4,0.4,0.7,0.7,0.9v2.2c-2.5,1.3-5.3,1.1-7.4,2.2c-0.4,0.2-0.8,0.5-1.2,0.8C4,31.2,2,26.6,2,21.5
	C2,10.8,10.8,2,21.5,2S41,10.8,41,21.5C41,26.5,39.1,31,36,34.5z"/>
<path fill="none" stroke="#000000" stroke-width="2.0126" stroke-miterlimit="10" d="M13.6,19c8.5-1.5,10.5-5.1,10.5-5.1
	s2,4.3,5.6,5"/>
<path d="M16.2,30.5c-0.2,0-0.3,0-0.5,0h0c-2.4,0-5-1.4-5.1-1.5l-1-0.5l0.7-0.9c0.7-0.9,1.3-3.6,1.6-5.6c0.1-0.3,0.1-0.6,0.1-0.9
	l1.6,0.2c0,0.4,0.1,0.9,0.2,1.2c-0.1,0.7-0.3,1.5-0.5,2.4c-0.2,1-0.5,1.9-0.9,2.8c0.7,0.3,1.7,0.6,2.6,0.8c0.4,0,0.7,0.1,1,0
	L16.2,30.5z"/>
<path d="M33.8,28.5l-1,0.5c-0.1,0.1-2.7,1.5-5.1,1.5h-0.1c-0.2,0-0.4,0-0.5,0l0.2-2c0.3,0,0.7,0,1,0c0.9-0.1,1.9-0.5,2.6-0.8
	c-0.3-0.8-0.6-1.7-0.8-2.6c-0.2-0.9-0.4-1.7-0.5-2.4c0.1-0.4,0.2-0.9,0.3-1.4l1.5-0.2c0,0.3,0.1,0.7,0.2,1.2
	c0.3,1.9,0.9,4.4,1.6,5.3L33.8,28.5z"/>
</svg>
